# WaveFront *.obj file (generated by Cinema 4D)

mtllib ./J3.mtl

v 18.343600 10.590600 -31.347119
v 21.181400 -0.000100 -24.640419
v 21.181400 -0.000100 -31.347119
v 18.343600 10.590600 -24.640419
v 10.590700 18.343600 -31.347119
v 10.590700 18.343600 -24.640419
v -0.000000 21.181300 -31.347119
v -0.000000 21.181300 -24.640419
v -10.590700 18.343600 -24.640419
v -10.590700 18.343600 -31.347119
v -18.343700 10.590600 -24.640419
v -18.343700 10.590600 -31.347119
v -21.181500 -0.000100 -24.640419
v -21.181500 -0.000100 -31.347119
v -18.343700 -10.590800 -24.640419
v -18.343700 -10.590800 -31.347119
v -10.590700 -18.343800 -24.640419
v -10.590700 -18.343800 -31.347119
v -0.000000 -21.181500 -24.640419
v -0.000000 -21.181500 -31.347119
v 10.590700 -18.343800 -31.347119
v 10.590700 -18.343800 -24.640419
v 18.343600 -10.590800 -24.640419
v 18.343600 -10.590800 -31.347119
v -28.758800 10.810000 -18.349919
v -22.052100 0.219300 -21.187719
v -28.758800 0.219300 -21.187719
v -22.052100 10.810000 -18.349919
v -28.758800 18.563000 -10.597019
v -22.052100 18.563000 -10.597019
v -28.758800 21.400800 -0.006319
v -22.052100 21.400800 -0.006319
v -22.052100 18.563000 10.584481
v -28.758800 18.563000 10.584481
v -22.052100 10.810100 18.337381
v -28.758800 10.810000 18.337381
v -22.052100 0.219300 21.175181
v -28.758800 0.219300 21.175181
v -22.052100 -10.371400 18.337381
v -28.758800 -10.371400 18.337381
v -22.052100 -18.124300 10.584481
v -28.758800 -18.124300 10.584481
v -22.052100 -20.962100 -0.006219
v -28.758800 -20.962100 -0.006219
v -28.758800 -18.124300 -10.597019
v -22.052100 -18.124300 -10.597019
v -22.052100 0.219300 27.005281
v -22.052100 -13.286400 23.386381
v -22.052100 -10.371400 -18.349919
v -28.758800 -10.371400 -18.349919
v 22.052200 27.230900 -0.006319
v 22.052200 -23.173300 13.499481
v 22.052200 -26.792200 -0.006219
v 22.052200 23.612000 13.499481
v -22.052100 13.725100 23.386381
v -22.052100 23.612000 13.499481
v -22.052100 -23.173300 13.499481
v -22.052100 27.230900 -0.006319
v -22.052100 -26.792200 -0.006219
v 22.052200 23.612000 13.499481
v -22.052100 27.230900 -0.006319
v -22.052100 23.612000 13.499481
v 22.052200 27.230900 -0.006319
v 22.052200 27.230900 -24.640219
v 22.052200 -26.792200 -24.640219
v 22.052200 13.725100 23.386381
v -22.052100 13.725100 23.386381
v -22.052100 27.230900 -24.640219
v -22.052100 -26.792200 -24.640219
v 22.052200 0.219400 27.005281
v -22.052100 0.219300 27.005281
v 22.052200 -13.286400 23.386381
v -22.052100 -13.286400 23.386381
v -22.052100 27.230900 -24.640219
v 22.052200 -26.792200 -24.640219
v -22.052100 -26.792200 -24.640219
v 22.052200 27.230900 -24.640219
v 22.052200 -23.173300 13.499481
v -22.052100 -23.173300 13.499481
v -22.052100 -26.792200 -0.006219
v 22.052200 -26.792200 -0.006219
v 22.052200 -13.286400 23.386381
v 22.052200 13.725100 23.386381
v 22.052200 0.219400 27.005281
# 84 vertices

vn 0.631469 0.293063 -0.717844
vn 0.996031 0.088937 -0.000000
vn 0.693406 -0.061906 -0.717844
vn 0.818094 0.575031 -0.000000
vn 0.473875 0.674156 -0.566500
vn 0.420969 0.907062 -0.000000
vn -0.000000 0.968094 -0.250531
vn 0.000000 1.000000 0.000000
vn -0.420969 0.907062 0.000000
vn -0.400313 0.569531 -0.717844
vn -0.818094 0.575031 0.000000
vn -0.631469 0.293063 -0.717844
vn -0.996031 0.088937 0.000000
vn -0.693406 -0.061906 -0.717844
vn -0.907062 -0.420969 0.000000
vn -0.569531 -0.400313 -0.717844
vn -0.575031 -0.818094 0.000000
vn -0.346875 -0.747469 -0.566469
vn 0.000000 -1.000000 0.000000
vn -0.000000 -0.888062 -0.459688
vn 0.293063 -0.631469 -0.717844
vn 0.575063 -0.818094 -0.000000
vn 0.907062 -0.420969 -0.000000
vn 0.569531 -0.400313 -0.717844
vn -0.717844 0.293063 -0.631469
vn -0.000000 0.088937 -0.996031
vn -0.717844 -0.061906 -0.693406
vn -0.000000 0.575031 -0.818094
vn -0.717844 0.569531 -0.400344
vn -0.000000 0.907062 -0.420969
vn -0.250562 0.968094 0.000000
vn -0.719250 0.694719 0.000000
vn -0.717844 0.631469 0.293063
vn -0.566500 0.674156 0.473875
vn -0.717875 0.400313 0.569531
vn -0.717875 0.293063 0.631469
vn -0.566500 0.073281 0.820781
vn -0.717844 -0.061906 0.693406
vn -0.717844 -0.293063 0.631469
vn -0.717844 -0.400313 0.569531
vn -0.717844 -0.569531 0.400313
vn -0.717844 -0.631469 0.293063
vn -0.459688 -0.888062 0.000000
vn -0.566469 -0.747469 -0.346906
vn -0.000000 -0.818094 -0.575031
vn -1.000000 0.000000 0.000000
vn -0.000000 -0.420969 -0.907062
vn -0.717844 -0.400313 -0.569531
vn 1.000000 0.000000 -0.000000
vn 0.000000 0.907062 0.420969
vn 0.000000 0.991437 0.130500
vn 0.000000 0.818094 0.575031
vn 0.000000 0.575031 0.818094
vn 0.000000 0.420969 0.907062
vn 0.000000 0.088937 0.996031
vn 0.000000 -0.088937 0.996031
vn 0.000000 -0.420969 0.907062
vn 0.000000 -0.575031 0.818094
vn -0.000000 0.447188 -0.894406
vn -0.000000 -0.707094 -0.707094
vn -0.000000 0.894406 -0.447188
vn 0.000000 -0.818094 0.575031
vn 0.000000 -0.907062 0.420969
vn 0.000000 -0.996188 0.086906
vn 0.000000 -0.984750 0.173844
# 65 normals

vt 0.193038 0.980322 0.000000
vt 0.196284 0.969245 0.000000
vt 0.184688 0.988293 0.000000
vt 0.173472 0.991021 0.000000
vt 0.162395 0.987775 0.000000
vt 0.154424 0.979425 0.000000
vt 0.151696 0.968209 0.000000
vt 0.154942 0.957132 0.000000
vt 0.163292 0.949161 0.000000
vt 0.174508 0.946433 0.000000
vt 0.185585 0.949679 0.000000
vt 0.193556 0.958029 0.000000
vt 0.145560 0.968067 0.000000
vt 0.149699 0.953940 0.000000
vt 0.173330 0.997157 0.000000
vt 0.160347 0.943776 0.000000
vt 0.174650 0.940297 0.000000
vt 0.159203 0.993018 0.000000
vt 0.149039 0.982370 0.000000
vt 0.494950 0.935809 0.000000
vt 0.484568 0.969711 0.000000
vt 0.494950 0.969711 0.000000
vt 0.484568 0.935809 0.000000
vt 0.219981 0.998307 0.000000
vt 0.221302 0.941447 0.000000
vt 0.502550 0.935809 0.000000
vt 0.502550 0.969711 0.000000
vt 0.505331 0.935809 0.000000
vt 0.505331 0.969711 0.000000
vt 0.448403 0.969711 0.000000
vt 0.448403 0.935809 0.000000
# 31 texture coordinates

o 11_Canadarm2_06_Cylinder_007
usemtl ISS_03_dull_1_1_1_1_1_1
f 1/1/1 2/2/2 3/2/3
f 1/1/1 4/1/4 2/2/2
f 5/3/5 4/1/4 1/1/1
f 5/3/5 6/3/6 4/1/4
f 7/4/7 6/3/6 5/3/5
f 7/4/7 8/4/8 6/3/6
f 9/5/9 7/4/7 10/5/10
f 8/4/8 7/4/7 9/5/9
f 11/6/11 10/5/10 12/6/12
f 9/5/9 10/5/10 11/6/11
f 13/7/13 12/6/12 14/7/14
f 11/6/11 12/6/12 13/7/13
f 15/8/15 14/7/14 16/8/16
f 13/7/13 14/7/14 15/8/15
f 17/9/17 16/8/16 18/9/18
f 15/8/15 16/8/16 17/9/17
f 19/10/19 18/9/18 20/10/20
f 17/9/17 18/9/18 19/10/19
f 21/11/21 19/10/19 20/10/20
f 21/11/21 22/11/22 19/10/19
f 3/2/3 23/12/23 24/12/24
f 3/2/3 2/2/2 23/12/23
f 24/12/24 22/11/22 21/11/21
f 24/12/24 23/12/23 22/11/22
f 18/9/18 21/11/21 20/10/20
f 16/8/16 21/11/21 18/9/18
f 16/8/16 24/12/24 21/11/21
f 14/7/14 24/12/24 16/8/16
f 14/7/14 3/2/3 24/12/24
f 12/6/12 3/2/3 14/7/14
f 12/6/12 1/1/1 3/2/3
f 10/5/10 1/1/1 12/6/12
f 10/5/10 5/3/5 1/1/1
f 7/4/7 5/3/5 10/5/10
f 25/1/25 26/2/26 27/2/27
f 25/1/25 28/1/28 26/2/26
f 29/3/29 28/1/28 25/1/25
f 29/3/29 30/3/30 28/1/28
f 31/4/31 30/3/30 29/3/29
f 31/4/31 32/4/32 30/3/30
f 33/5/33 31/4/31 34/5/34
f 32/4/32 31/4/31 33/5/33
f 35/6/35 34/5/34 36/6/36
f 33/5/33 34/5/34 35/6/35
f 37/7/37 36/6/36 38/7/38
f 35/6/35 36/6/36 37/7/37
f 39/8/39 38/7/38 40/8/40
f 37/7/37 38/7/38 39/8/39
f 41/9/41 40/8/40 42/9/42
f 39/8/39 40/8/40 41/9/41
f 43/10/43 42/9/42 44/10/43
f 41/9/41 42/9/42 43/10/43
f 45/11/44 43/10/43 44/10/43
f 45/11/44 46/11/45 43/10/43
f 47/13/46 39/8/39 48/14/46
f 47/13/46 37/7/37 39/8/39
f 27/2/27 49/12/47 50/12/48
f 27/2/27 26/2/26 49/12/47
f 50/12/48 46/11/45 45/11/44
f 50/12/48 49/12/47 46/11/45
f 42/9/42 45/11/44 44/10/43
f 42/9/42 50/12/48 45/11/44
f 40/8/40 50/12/48 42/9/42
f 40/8/40 27/2/27 50/12/48
f 38/7/38 27/2/27 40/8/40
f 38/7/38 25/1/25 27/2/27
f 36/6/36 25/1/25 38/7/38
f 36/6/36 29/3/29 25/1/25
f 34/5/34 29/3/29 36/6/36
f 34/5/34 31/4/31 29/3/29
f 51/15/49 52/16/49 53/17/49
f 51/15/49 54/18/49 52/16/49
f 55/19/46 33/5/33 35/6/35
f 56/18/46 33/5/33 55/19/46
f 48/14/46 41/9/41 57/16/46
f 48/14/46 39/8/39 41/9/41
f 47/13/46 35/6/35 37/7/37
f 55/19/46 35/6/35 47/13/46
f 56/18/46 32/4/32 33/5/33
f 56/18/46 58/15/46 32/4/32
f 57/16/46 43/10/43 59/17/46
f 41/9/41 43/10/43 57/16/46
f 60/20/50 61/21/51 62/22/52
f 63/23/51 61/21/51 60/20/50
f 64/24/49 53/17/49 65/25/49
f 64/24/49 51/15/49 53/17/49
f 66/26/53 62/22/52 67/27/54
f 60/20/50 62/22/52 66/26/53
f 59/17/46 68/24/46 69/25/46
f 58/15/46 68/24/46 59/17/46
f 70/28/55 67/27/54 71/29/56
f 66/26/53 67/27/54 70/28/55
f 72/26/57 71/29/56 73/27/58
f 70/28/55 71/29/56 72/26/57
f 74/30/59 75/31/60 76/30/60
f 74/30/59 77/31/61 75/31/60
f 78/20/62 73/27/58 79/22/63
f 72/26/57 73/27/58 78/20/62
f 75/31/60 80/21/64 76/30/60
f 81/23/65 80/21/64 75/31/60
f 81/23/65 79/22/63 80/21/64
f 78/20/62 79/22/63 81/23/65
f 61/21/51 77/31/61 74/30/59
f 61/21/51 63/23/51 77/31/61
f 54/18/49 82/14/49 52/16/49
f 54/18/49 83/19/49 82/14/49
f 82/14/49 83/19/49 84/13/49

